C:\Users\u0088756\Documents\documenten\software\SoftwareProjects\DC_TrackingSimulation\Data\FitMuscleFunctions\dummy_motion_RightSubtalar.mot
nRows=16
nColumns=14

name C:\Users\u0088756\Documents\documenten\software\SoftwareProjects\DC_TrackingSimulation\Data\FitMuscleFunctions\dummy_motion_RightSubtalar.mot
datacolumns 14
datarows 16
range 12.5100000000 12.6600000000
endheader
time	first_body_list	first_body_rotation	first_body_tilt	first_body_tx	first_body_ty	first_body_tz	subtalar_angle_r	ankle_angle_r	knee_angle_r	hip_flexion_r	hip_adduction_r	hip_rotation_r	mtp_angle_r
       12.5100000000	        0.0000000000	        0.0000000000	        0.0000000000	        0.0000000000	        0.0000000000	        0.0000000000	        0.5491867221	      -33.2970768411	     -103.0116185359	        1.9156433215	       -8.6064170770	       12.4273714036	        0.0000000000	
       12.5200000000	        0.0000000000	        0.0000000000	        0.0000000000	        0.0000000000	        0.0000000000	        0.0000000000	      -14.8231167517	       53.7990685350	      -94.8453746201	      -32.3857025652	      -17.4790390150	       18.0148473544	        0.0000000000	
       12.5300000000	        0.0000000000	        0.0000000000	        0.0000000000	        0.0000000000	        0.0000000000	        0.0000000000	      -13.3979964666	       -4.7933958021	      -46.0953519014	       41.9499400614	       11.4491781609	      -38.4442371084	        0.0000000000	
       12.5400000000	        0.0000000000	        0.0000000000	        0.0000000000	        0.0000000000	        0.0000000000	        0.0000000000	       -0.3006606846	       44.3752833479	     -100.7397905294	       -6.0670134904	      -25.7051715880	      -15.8562294148	        0.0000000000	
       12.5500000000	        0.0000000000	        0.0000000000	        0.0000000000	        0.0000000000	        0.0000000000	        0.0000000000	      -21.5857527713	       -7.4114098788	     -100.3390097080	       16.3971908544	       -4.6113366249	       37.7188860123	        0.0000000000	
       12.5600000000	        0.0000000000	        0.0000000000	        0.0000000000	        0.0000000000	        0.0000000000	        0.0000000000	      -25.1312645187	      -10.0603997948	      -96.5371061834	      113.3279041044	       -5.4566311677	       24.0387251029	        0.0000000000	
       12.5700000000	        0.0000000000	        0.0000000000	        0.0000000000	        0.0000000000	        0.0000000000	        0.0000000000	      -28.4617357157	      -33.2046657211	      -16.0962406733	       20.8612252322	       22.4203739442	      -14.2952546141	        0.0000000000	
       12.5800000000	        0.0000000000	        0.0000000000	        0.0000000000	        0.0000000000	        0.0000000000	        0.0000000000	        2.8189015433	       42.9166493561	      -51.8201213716	      -64.2497450147	       14.0481148767	      -32.4053965191	        0.0000000000	
       12.5900000000	        0.0000000000	        0.0000000000	        0.0000000000	        0.0000000000	        0.0000000000	        0.0000000000	       -0.3726023961	      -52.9100032617	      -70.5154841674	      -69.6646945695	      -25.1314777903	      -23.3144280824	        0.0000000000	
       12.6000000000	        0.0000000000	        0.0000000000	        0.0000000000	        0.0000000000	        0.0000000000	        0.0000000000	       29.1795112615	        7.9895022269	      -85.5990172515	      -54.8819669917	       19.9565359483	       32.6828852139	        0.0000000000	
       12.6100000000	        0.0000000000	        0.0000000000	        0.0000000000	        0.0000000000	        0.0000000000	        0.0000000000	      -12.4771334119	       -1.0221656555	      -96.3566984390	      104.3596642424	       10.3667604713	       33.8606689141	        0.0000000000	
       12.6200000000	        0.0000000000	        0.0000000000	        0.0000000000	        0.0000000000	        0.0000000000	        0.0000000000	      -28.1969624887	      -26.9509163728	      -93.0294680706	       30.9437631823	       -1.6063501017	      -39.5739041304	        0.0000000000	
       12.6300000000	        0.0000000000	        0.0000000000	        0.0000000000	        0.0000000000	        0.0000000000	        0.0000000000	       23.1120745005	       28.6488453619	      -43.4992637999	       70.1022898383	       21.2905613593	       30.3607566303	        0.0000000000	
       12.6400000000	        0.0000000000	        0.0000000000	        0.0000000000	        0.0000000000	        0.0000000000	        0.0000000000	      -28.1150095910	       26.6071164476	     -109.1542470110	       18.2290080257	       -0.6748065332	      -18.1205510770	        0.0000000000	
       12.6500000000	        0.0000000000	        0.0000000000	        0.0000000000	        0.0000000000	        0.0000000000	        0.0000000000	       14.1729653177	      -40.7229185845	       -5.9432650437	       82.9070335867	        4.8104165234	       20.1482324709	        0.0000000000	
       12.6600000000	        0.0000000000	        0.0000000000	        0.0000000000	        0.0000000000	        0.0000000000	        0.0000000000	      -22.3841422928	       52.8595719883	      -90.7418197236	       69.9853307396	      -17.7132701520	       17.1189342464	        0.0000000000	
